# xmcd
#
# Track frame offsets:
#        150
#        21652
#        33300
#        50287
#        67835
#        87710
#        106522
#        122990
#        140505
#        153705
#
# Disc length: 2213 seconds
#
# Revision: 0
# Processed by: cddbd v1.5.1PL2 Copyright (c) Steve Scherf et al.
# Submitted via: ExactAudioCopy v0.95b4
#
DISCID=8708a30a
DTITLE=Phil Alken - Don't Look Down
DYEAR=2001
DGENRE=
TTITLE0=Lose Yourself
TTITLE1=Rear View
TTITLE2=Missouri Arcade
TTITLE3=Constellation
TTITLE4=Libertine
TTITLE5=Melancholia
TTITLE6=Edison
TTITLE7=Paralyzed
TTITLE8=Man Overboard
TTITLE9=Don't Look Down
EXTD=
EXTT0=
EXTT1=
EXTT2=
EXTT3=
EXTT4=
EXTT5=
EXTT6=
EXTT7=
EXTT8=
EXTT9=
PLAYORDER=
